<?xml version="1.0" standalone="no"?><!DOCTYPE svg PUBLIC "-//W3C//DTD SVG 1.1//EN" "http://www.w3.org/Graphics/SVG/1.1/DTD/svg11.dtd"><svg t="1664173435830" class="icon" viewBox="0 0 1024 1024" version="1.1" xmlns="http://www.w3.org/2000/svg" p-id="22485" xmlns:xlink="http://www.w3.org/1999/xlink" width="200" height="200"><path d="M543.940112 0.638802A1370.230817 1370.230817 0 0 0 64.838428 117.539613v138.620088c0-11.49844 3.832813 99.014348 12.776045 178.225826l55.575795-55.575795C128.718653 336.648784 128.718653 237.634435 128.718653 256.159701v-89.432315a1262.91204 1262.91204 0 0 1 415.221459-102.208359 1285.908921 1285.908921 0 0 1 415.22146 102.208359v153.312539a972.89582 972.89582 0 0 1-56.214598 327.06675c-88.793512 208.249532-330.260761 301.51466-341.759201 305.347473l-16.608858 6.388023-14.692452-5.74922C256.479102 815.750468 192.598877 643.912664 179.822832 629.859014l172.476607-172.476606 116.900811 118.178415h21.080474l191.640673-191.640673H703.640674v127.760449h63.880224v-255.520898H512v63.880224h127.760449v22.358079L480.059888 501.459763 363.159077 383.92015h-21.719277L112.109794 613.250156a398.612601 398.612601 0 0 0 19.80287 54.936993c102.208359 237.634435 383.281347 344.31441 394.140985 348.786026l17.247661 6.388023 17.247661-6.388023c390.308172-140.536494 435.024329-419.054273 447.161572-567.895196 15.331254-109.873986 15.331254-331.538366 15.331254-331.538366A1385.562071 1385.562071 0 0 0 543.940112 0.638802z" p-id="22486"></path></svg>