<?xml version="1.0" standalone="no"?><!DOCTYPE svg PUBLIC "-//W3C//DTD SVG 1.1//EN" "http://www.w3.org/Graphics/SVG/1.1/DTD/svg11.dtd"><svg t="1664164077587" class="icon" viewBox="0 0 1024 1024" version="1.1" xmlns="http://www.w3.org/2000/svg" p-id="10837" xmlns:xlink="http://www.w3.org/1999/xlink" width="200" height="200"><path d="M928 928H96c-17.6 0-32-14.4-32-32s14.4-32 32-32h832c17.6 0 32 14.4 32 32s-14.4 32-32 32zM416 96H224c-70.4 0-128 57.6-128 128v384c0 59.386 40.988 109.664 96.07 123.942C194.215 663.128 250.666 608 320 608c70.692 0 128 57.308 128 128h96V224c0-70.4-57.6-128-128-128z" p-id="10838"></path><path d="M736 736m-96 0a96 96 0 1 0 192 0 96 96 0 1 0-192 0Z" p-id="10839"></path><path d="M320 736m-96 0a96 96 0 1 0 192 0 96 96 0 1 0-192 0Z" p-id="10840"></path><path d="M864 288c-32-64-64-64-96-64H576v512h32c0-70.692 57.308-128 128-128 65.049 0 118.76 48.524 126.923 111.348C901.698 697.288 928 655.569 928 608V448l-64-160z m-64 192c0 17.6-14.4 32-32 32h-64c-17.6 0-32-14.4-32-32v-96c0-17.6 14.4-32 32-32s32 14.4 32 32v64h32c17.6 0 32 14.4 32 32z" p-id="10841"></path></svg>