<?xml version="1.0" standalone="no"?><!DOCTYPE svg PUBLIC "-//W3C//DTD SVG 1.1//EN" "http://www.w3.org/Graphics/SVG/1.1/DTD/svg11.dtd"><svg t="1630031703032" class="icon" viewBox="0 0 1024 1024" version="1.1" xmlns="http://www.w3.org/2000/svg" p-id="2113" xmlns:xlink="http://www.w3.org/1999/xlink" width="200" height="200"><defs><style type="text/css"></style></defs><path d="M441.02144 553.26208L332.65152 473.30304l-54.15424 43.8784 203.81184 180.59776c92.87168-198.6816 273.43872-348.3136 273.43872-348.30848l-20.6336-23.2448c-144.46592 72.23296-294.0928 227.03616-294.0928 227.03616z" fill="#ffffff" p-id="2114"></path><path d="M839.99232 175.03744c-7.66976 0.27648-15.22176 0.384-22.60992 0.384h-0.03072c-194.42176 0-280.05888-89.10336-280.7808-89.87136l-19.42016-21.26848-19.456 21.26848c-0.8448 0.93184-91.21792 96.7168-303.44192 89.48736l-27.25376-0.93184v403.92704c0 105.74848 35.30752 259.99872 340.61312 378.0096l9.50784 3.68128 9.50784-3.68128c305.31072-118.01088 340.60288-272.26112 340.60288-378.0096V174.1056l-27.2384 0.93184z m-357.6832 522.74176l-203.81184-180.59776 54.15424-43.8784 108.36992 79.95904s149.62688-154.79808 294.0928-227.03616l20.6336 23.2448c0-0.00512-180.56704 149.62688-273.43872 348.30848z" fill="#ffffff" p-id="2115"></path></svg>