<?xml version="1.0" standalone="no"?><!DOCTYPE svg PUBLIC "-//W3C//DTD SVG 1.1//EN" "http://www.w3.org/Graphics/SVG/1.1/DTD/svg11.dtd"><svg t="1664173331307" class="icon" viewBox="0 0 1025 1024" version="1.1" xmlns="http://www.w3.org/2000/svg" p-id="20310" xmlns:xlink="http://www.w3.org/1999/xlink" width="200.1953125" height="200"><path d="M274.602667 921.6h477.866666a102.4 102.4 0 0 1 102.4 102.4h-682.666666a102.4 102.4 0 0 1 102.4-102.4z" p-id="20311"></path><path d="M581.802667 68.266667v853.333333h-136.533334V68.266667a68.266667 68.266667 0 0 1 68.266667-68.266667 68.266667 68.266667 0 0 1 68.266667 68.266667z" p-id="20312"></path><path d="M972.8 307.2H512v-102.4h460.8a51.2 51.2 0 0 1 51.2 51.2 51.2 51.2 0 0 1-51.2 51.2zM51.2 204.8h460.8v102.4H51.2a51.2 51.2 0 0 1-51.2-51.2 51.2 51.2 0 0 1 51.2-51.2z" p-id="20313"></path><path d="M718.336 204.8h-409.6v-34.133333a68.266667 68.266667 0 0 1 68.266667-68.266667h273.066666a68.266667 68.266667 0 0 1 68.266667 68.266667v34.133333z" p-id="20314"></path><path d="M513.536 256m-119.466667 0a119.466667 119.466667 0 1 0 238.933334 0 119.466667 119.466667 0 1 0-238.933334 0Z" p-id="20315"></path><path d="M513.536 256m-51.2 0a51.2 51.2 0 1 0 102.4 0 51.2 51.2 0 1 0-102.4 0Z" p-id="20316"></path><path d="M51.2 631.466667H0l102.4-324.266667h51.2L51.2 631.466667zM307.2 631.466667h-51.2L153.6 307.2h51.2l102.4 324.266667z" p-id="20317"></path><path d="M307.2 631.466667a153.6 153.6 0 0 1-307.2 0 281.429333 281.429333 0 0 1 153.6-51.2 281.429333 281.429333 0 0 1 153.6 51.2z" p-id="20318"></path><path d="M769.536 631.466667h-51.2l102.4-324.266667h51.2l-102.4 324.266667zM1025.536 631.466667h-51.2l-102.4-324.266667h51.2l102.4 324.266667z" p-id="20319"></path><path d="M1025.536 631.466667a153.6 153.6 0 0 1-307.2 0 281.429333 281.429333 0 0 1 153.6-51.2 281.429333 281.429333 0 0 1 153.6 51.2z" p-id="20320"></path><path d="M923.136 307.2H972.8a51.2 51.2 0 0 0 0-102.4H718.336v-34.133333a68.266667 68.266667 0 0 0-68.266667-68.266667h-68.266666V68.266667a68.266667 68.266667 0 0 0-68.266667-68.266667v1024h341.333333a102.4 102.4 0 0 0-102.4-102.4h-170.666666V353.962667A118.101333 118.101333 0 0 0 621.397333 307.2h199.338667l-102.4 324.266667a153.6 153.6 0 0 0 307.2 0z m-51.2 273.066667a252.586667 252.586667 0 0 0-91.989333 18.432L871.936 307.2l92.16 291.498667a252.757333 252.757333 0 0 0-92.16-18.432z" opacity=".5" p-id="20321"></path></svg>