<?xml version="1.0" standalone="no"?><!DOCTYPE svg PUBLIC "-//W3C//DTD SVG 1.1//EN" "http://www.w3.org/Graphics/SVG/1.1/DTD/svg11.dtd"><svg t="1664172556929" class="icon" viewBox="0 0 1024 1024" version="1.1" xmlns="http://www.w3.org/2000/svg" p-id="16754" xmlns:xlink="http://www.w3.org/1999/xlink" width="200" height="200"><path d="M682.659101 785.077259a34.13182 34.13182 0 0 1 34.13182 34.13182v170.659101a34.13182 34.13182 0 1 1-68.26364 0V819.209079a34.13182 34.13182 0 0 1 34.13182-34.13182z m136.52728-102.395461a34.13182 34.13182 0 0 1 34.131821 34.131821v273.054561a34.13182 34.13182 0 1 1-68.263641 0V716.813619a34.13182 34.13182 0 0 1 34.13182-34.131821z m136.527281 170.659101a34.13182 34.13182 0 0 1 34.13182 34.13182v102.395461a34.13182 34.13182 0 1 1-68.26364 0v-102.395461a34.13182 34.13182 0 0 1 34.13182-34.13182zM504.32034 6.479243c0 5.904805 149.326713 123.898507 364.357181 123.898508 17.134174 0 34.285413 10.802721 35.736015 27.220126l0.102396 2.286832v416.357008c0 14.762012-2.867073 31.742593-8.225769 50.259105-20.206038-18.635974-36.862366-29.797079-60.976497-40.207284a95.227778 95.227778 0 0 0 0.938625-10.068887v-373.74343C663.033304 196.593482 531.625797 120.479523 483.841248 85.374946c-94.545142 87.2068-244.503294 108.453859-329.747514 115.70687L136.549978 202.447089v355.653566C136.549978 675.20693 328.541467 938.67045 477.86818 938.67045c18.038667 0 36.640509-3.635039 55.430076-10.205415a237.728127 237.728127 0 0 0 28.943783 35.940807c7.082353 7.253012 14.488958 13.994046 22.134486 20.257235C551.797702 998.827783 518.775166 1006.93409 486.401135 1006.93409 303.079129 1006.93409 72.945331 717.803441 68.354602 568.903376L68.286338 564.432108V157.051768c0.034132-9.966491 0.511977-15.359319 5.973068-20.769213 4.983246-4.914982 9.949426-5.734146 18.397052-5.870673l5.495223-0.034131c89.596028 0 286.707289-23.602154 364.35718-117.993703 11.946137-11.80961 29.865343-17.714415 41.811479-5.904805zM494.93409 648.549978c15.751835 0 31.520736 13.652728 41.606689 29.592288a233.973627 233.973627 0 0 0-21.810233 68.860948c-6.058398 2.559887-12.765301 3.942225-19.796456 3.942225-28.448872 0-51.19773-22.748858-51.19773-51.19773s22.748858-51.19773 51.19773-51.197731z m8.532955-375.450021c40.156086 0 42.511182 31.913252 42.664775 50.685753v3.361984l-9.488646 234.178418c0 18.004535-14.215903 36.026136-28.431806 36.026136-18.055733 0-31.827922-16.332076-37.186618-33.449184l-0.733834-2.576952L460.80227 327.147694l0.068263-4.573664C461.519038 299.483854 467.918754 273.099957 503.467045 273.099957z" p-id="16755"></path></svg>