<?xml version="1.0" standalone="no"?><!DOCTYPE svg PUBLIC "-//W3C//DTD SVG 1.1//EN" "http://www.w3.org/Graphics/SVG/1.1/DTD/svg11.dtd"><svg t="1664173664964" class="icon" viewBox="0 0 1024 1024" version="1.1" xmlns="http://www.w3.org/2000/svg" p-id="23082" xmlns:xlink="http://www.w3.org/1999/xlink" width="200" height="200"><path d="M542.464 108.4416c268.0832 15.0528 481.8944 213.8112 481.8944 460.8v15.0528c-3.0208 24.064-33.1264 30.1056-45.1584 12.032a164.352 164.352 0 0 0-141.568-78.336c-57.2416 0-108.4416 30.1568-138.5472 72.2944a28.2112 28.2112 0 0 1-45.1584 0c-30.1568-45.1584-81.3568-72.2432-138.5472-72.2432a172.6976 172.6976 0 0 0-141.568 75.264 28.2112 28.2112 0 0 1-45.1584 0 168.6528 168.6528 0 0 0-141.568-75.264c-57.2416 0-111.4112 33.1264-141.568 78.336-15.0528 20.992-45.1584 11.9808-45.1584-12.0832v-15.0528c0-246.9888 213.8112-445.7472 481.8944-460.8V30.1056C482.2528 12.032 494.2848 0 512.3584 0s30.1056 12.032 30.1056 30.1056v78.336z m-27.904 449.024c17.1008 0 28.4672 14.2848 31.2832 28.4672V870.4c0 2.8672-2.816 5.6832-2.816 8.5504C537.344 958.5664 471.9104 1024 392.2432 1024c-82.432 0-150.7328-68.2496-150.7328-153.6 0-17.0496 11.3664-28.4672 28.4672-28.4672 17.0496 0 28.416 11.4176 28.416 28.4672 0 54.0672 42.6496 96.7168 93.8496 96.7168S486.144 924.4672 486.144 870.4v-284.4672c0-17.0496 11.3664-28.416 28.416-28.416z" p-id="23083"></path></svg>