<svg t="1677830851934" class="icon" viewBox="0 0 1024 1024" version="1.1" xmlns="http://www.w3.org/2000/svg" p-id="6903" width="64" height="64"><path d="M855.13728 187.4176c-105.97376 0-209.34656-36.9152-291.08736-103.936l-40.9344-33.56672-40.94976 33.56672c-81.77152 67.01568-185.15456 103.936-291.09248 103.936H126.49984V622.83264l4.95104 11.90912c67.33824 161.82784 206.54592 289.3824 372.38272 341.2224l19.08224 5.96992 19.11808-5.86752c170.07616-52.16768 305.99168-176.79872 372.92032-341.89824l4.62848-11.43808 0.08704-12.34944 0.03072-3.27168V187.4176h-64.5632z m0 419.22048l-0.03072 3.26144c-58.8544 145.21856-180.87424 258.06848-332.00128 304.44032-148.33664-46.39232-272.86528-162.24256-332.032-304.4096V252.0064c125.99296 0 241.62304-44.46208 332.032-118.56896C613.50912 207.5648 729.088 252.0064 855.13728 252.0064v354.63168z" fill="" p-id="6904"></path><path d="M400.47616 304.95232c57.68192 2.5856 87.78752 39.74656 90.368 111.5136-2.58048 70.50752-33.97632 107.0336-94.21312 109.5936-55.12192-3.85024-84.59264-40.37632-88.43776-109.5936 2.55488-71.76704 33.31584-108.928 92.28288-111.5136z m-1.92 174.96064c26.91584-1.25952 41.0112-23.07072 42.30144-65.37216-1.29024-42.29632-14.7456-64.08192-40.37632-65.37216-28.20608 0-42.29632 22.44096-42.29632 67.29216 1.25952 39.75168 14.72 60.89728 40.3712 63.45216z m207.64672-174.96064h51.91168l-219.18208 417.21856H387.0208l219.18208-417.21856z m40.37632 199.95648c57.68192 2.5856 87.78752 40.37632 90.36288 113.4336-2.58048 66.6624-33.97632 101.23776-94.208 103.82336-56.41728-3.84512-85.88288-38.45632-88.44288-103.82336 2.56-71.77216 33.32096-109.58848 92.288-113.4336z m-1.92512 176.88576c25.63072-1.25952 39.0912-23.71072 40.38144-67.29728-1.29024-41.0112-14.12096-62.16192-38.45632-63.45216-26.91584 0-41.0368 21.81632-42.30144 65.37728 1.26976 41.0368 14.72512 62.81216 40.37632 65.37216z" fill="" p-id="6905"></path></svg>