<?xml version="1.0" standalone="no"?><!DOCTYPE svg PUBLIC "-//W3C//DTD SVG 1.1//EN" "http://www.w3.org/Graphics/SVG/1.1/DTD/svg11.dtd"><svg t="1664164840906" class="icon" viewBox="0 0 1024 1024" version="1.1" xmlns="http://www.w3.org/2000/svg" p-id="16479" xmlns:xlink="http://www.w3.org/1999/xlink" width="200" height="200"><path d="M847 959H177a50 50 0 0 1-50-50V155.4c0-0.132-0.01-0.262-0.01-0.4a90 90 0 0 1 90-90H765a30 30 0 0 1 30 30v90h72a30 30 0 0 1 30 30v694a50 50 0 0 1-50 50z m-660-80a20 20 0 0 0 20 20h610a20 20 0 0 0 20-20V245H216.99a89.822 89.822 0 0 1-29.99-5.138V879z m548-754H216.99a30 30 0 0 0 0 60H735v-60zM292.666 753.366l122.863-40.144L336.54 687.5A32.015 32.015 0 0 1 315 658.02v-78h-13a30 30 0 0 1-30-30 30 30 0 0 1 30-30h13a30 30 0 0 1 60 0h274a30 30 0 0 1 60 0h13a30 30 0 0 1 30 30 30 30 0 0 1-30 30h-13v78a32.421 32.421 0 0 1-21.673 29.628l-78.162 25.538 122.489 39.894a30 30 0 0 1-18.581 57.05l-200.627-65.342-201.22 65.745a30.052 30.052 0 0 1-18.56-57.167zM649 636.939V580.02H375v56.9l137.248 44.7z m73-158.919a30 30 0 0 1-30-30v-6a20 20 0 0 0-20-20H352a20 20 0 0 0-20 20v6a30 30 0 0 1-60 0v-36a50 50 0 0 1 50-50h160a30 30 0 0 1 60 0h160a50 50 0 0 1 50 50v36a30 30 0 0 1-30 30z" p-id="16480"></path></svg>