<?xml version="1.0" standalone="no"?><!DOCTYPE svg PUBLIC "-//W3C//DTD SVG 1.1//EN" "http://www.w3.org/Graphics/SVG/1.1/DTD/svg11.dtd"><svg t="1664172844452" class="icon" viewBox="0 0 1024 1024" version="1.1" xmlns="http://www.w3.org/2000/svg" p-id="17017" xmlns:xlink="http://www.w3.org/1999/xlink" width="200" height="200"><path d="M385.2288 871.2192h-132.3008c-54.8864 0-99.328-44.6464-99.328-99.328V252.928C153.6 198.0416 198.2464 153.6 252.928 153.6h538.0096c54.8864 0 99.328 44.6464 99.328 99.328v82.1248c0 12.4928-10.0352 22.528-22.528 22.528s-22.528-10.0352-22.528-22.528v-82.1248c0-29.9008-24.3712-54.272-54.272-54.272H252.928C223.0272 198.656 198.656 223.0272 198.656 252.928v518.7584c0 29.9008 24.3712 54.272 54.272 54.272h132.3008c12.4928 0 22.528 10.0352 22.528 22.528s-10.24 22.7328-22.528 22.7328z" p-id="17018"></path><path d="M491.3152 406.9376h-217.088c-12.4928 0-22.528-10.0352-22.528-22.528s10.0352-22.528 22.528-22.528h217.088c12.4928 0 22.528 10.0352 22.528 22.528 0 12.288-10.0352 22.528-22.528 22.528z" p-id="17019"></path><path d="M438.0672 560.7424h-163.84c-12.4928 0-22.528-10.0352-22.528-22.528s10.0352-22.528 22.528-22.528h163.84c12.4928 0 22.528 10.0352 22.528 22.528s-10.0352 22.528-22.528 22.528zM682.3936 613.5808c-83.968 0-152.3712-68.4032-152.3712-152.3712s68.4032-152.3712 152.3712-152.3712 152.3712 68.4032 152.3712 152.3712-68.4032 152.3712-152.3712 152.3712z m0-259.4816c-59.1872 0-107.3152 48.128-107.3152 107.3152s48.128 107.3152 107.3152 107.3152 107.3152-48.128 107.3152-107.3152-48.128-107.3152-107.3152-107.3152z" p-id="17020"></path><path d="M888.6272 819.8144c-12.4928 0-22.528-10.0352-22.528-22.528 0-101.376-82.3296-183.7056-183.7056-183.7056s-183.7056 82.3296-183.7056 183.7056c0 12.4928-10.0352 22.528-22.528 22.528s-22.528-10.0352-22.528-22.528c0-126.1568 102.6048-228.7616 228.7616-228.7616s228.7616 102.6048 228.7616 228.7616c0 12.288-10.0352 22.528-22.528 22.528z" p-id="17021"></path></svg>