<?xml version="1.0" standalone="no"?><!DOCTYPE svg PUBLIC "-//W3C//DTD SVG 1.1//EN" "http://www.w3.org/Graphics/SVG/1.1/DTD/svg11.dtd"><svg t="1664160111705" class="icon" viewBox="0 0 1024 1024" version="1.1" xmlns="http://www.w3.org/2000/svg" p-id="1816" xmlns:xlink="http://www.w3.org/1999/xlink" width="200" height="200"><path d="M257.910448 897.910448h-171.940299C49.671642 897.910448 19.104478 869.253731 19.104478 831.044776V156.656716c0-36.298507 30.567164-66.865672 66.865671-66.865671h171.940299c36.298507 0 66.865672 30.567164 66.865671 66.865671v676.298508c0 36.298507-28.656716 64.955224-66.865671 64.955224z m-171.940299-750.80597c-3.820896 0-9.552239 3.820896-9.552239 9.552238v676.298508c0 3.820896 5.731343 7.641791 9.552239 7.641791h171.940299c5.731343 0 9.552239-3.820896 9.552239-9.552239V156.656716c0-5.731343-3.820896-9.552239-9.552239-9.552238h-171.940299z" p-id="1817"></path><path d="M171.940299 540.656716c-11.462687 0-19.104478-7.641791-19.104478-19.104477V233.074627c0-11.462687 7.641791-19.104478 19.104478-19.104478s19.104478 7.641791 19.104477 19.104478v288.477612c0 11.462687-7.641791 19.104478-19.104477 19.104477zM171.940299 746.985075c-32.477612 0-57.313433-24.835821-57.313433-57.313433s24.835821-57.313433 57.313433-57.313433 57.313433 24.835821 57.313432 57.313433-24.835821 57.313433-57.313432 57.313433z m0-76.417911c-11.462687 0-19.104478 7.641791-19.104478 19.104478s7.641791 19.104478 19.104478 19.104477 19.104478-7.641791 19.104477-19.104477-7.641791-19.104478-19.104477-19.104478z" p-id="1818"></path><path d="M506.268657 897.910448h-171.940299c-36.298507 0-66.865672-30.567164-66.865671-66.865672V156.656716c0-36.298507 30.567164-66.865672 66.865671-66.865671h171.940299c36.298507 0 66.865672 30.567164 66.865671 66.865671v676.298508c0 36.298507-28.656716 64.955224-66.865671 64.955224z m-171.940299-750.80597c-5.731343 0-9.552239 3.820896-9.552239 9.552238v676.298508c0 5.731343 3.820896 9.552239 9.552239 9.552239h171.940299c5.731343 0 9.552239-3.820896 9.552239-9.552239V156.656716c0-5.731343-3.820896-9.552239-9.552239-9.552238h-171.940299z" p-id="1819"></path><path d="M420.298507 540.656716c-11.462687 0-19.104478-7.641791-19.104477-19.104477V233.074627c0-11.462687 7.641791-19.104478 19.104477-19.104478s19.104478 7.641791 19.104478 19.104478v288.477612c0 11.462687-7.641791 19.104478-19.104478 19.104477zM420.298507 746.985075c-32.477612 0-57.313433-24.835821-57.313432-57.313433s24.835821-57.313433 57.313432-57.313433 57.313433 24.835821 57.313433 57.313433-24.835821 57.313433-57.313433 57.313433z m0-76.417911c-11.462687 0-19.104478 7.641791-19.104477 19.104478s7.641791 19.104478 19.104477 19.104477 19.104478-7.641791 19.104478-19.104477-7.641791-19.104478-19.104478-19.104478z" p-id="1820"></path><path d="M773.731343 909.373134c-28.656716 0-55.402985-19.104478-64.955224-47.761194l-187.22388-649.552239c-9.552239-36.298507 9.552239-72.597015 45.850746-82.149253l164.298508-47.761194c36.298507-9.552239 72.597015 9.552239 82.149253 45.850746l187.223881 649.552239c9.552239 36.298507-9.552239 72.597015-45.850746 82.149254l-164.298508 47.761194c-5.731343 0-11.462687 1.910448-17.19403 1.910447zM750.80597 135.641791h-1.910448l-164.298507 47.761194c-5.731343 1.910448-7.641791 7.641791-5.731343 11.462687l187.22388 649.552238c1.910448 5.731343 7.641791 7.641791 11.462687 5.731344l164.298507-47.761194c3.820896 0 5.731343-3.820896 5.731344-3.820896s1.910448-3.820896 0-7.641791l-187.223881-649.552239c0-3.820896-3.820896-5.731343-3.820896-5.731343h-5.731343z" p-id="1821"></path><path d="M769.910448 538.746269c-7.641791 0-15.283582-5.731343-19.104478-13.373135L670.567164 248.358209c-3.820896-9.552239 3.820896-21.014925 13.373135-22.925373 9.552239-3.820896 21.014925 3.820896 22.925373 13.373134L787.104478 515.820896c3.820896 9.552239-3.820896 21.014925-13.373135 22.925373h-3.820895zM815.761194 739.343284c-24.835821 0-47.761194-17.19403-55.402985-42.029851-3.820896-15.283582-1.910448-30.567164 5.731343-43.940299 7.641791-13.373134 19.104478-22.925373 34.38806-26.746268 15.283582-3.820896 30.567164-1.910448 43.940298 5.731343s22.925373 19.104478 26.746269 34.38806c9.552239 30.567164-9.552239 63.044776-38.208955 70.686567-5.731343 0-11.462687 1.910448-17.19403 1.910448z m0-76.417911h-5.731343c-5.731343 1.910448-9.552239 3.820896-11.462687 9.552239s-3.820896 9.552239-1.910448 15.283582c3.820896 9.552239 13.373134 15.283582 22.925374 13.373134 9.552239-3.820896 15.283582-13.373134 13.373134-22.925373-1.910448-5.731343-3.820896-9.552239-9.552239-11.462686 0-3.820896-3.820896-3.820896-7.641791-3.820896z" p-id="1822"></path></svg>