<?xml version="1.0" standalone="no"?><!DOCTYPE svg PUBLIC "-//W3C//DTD SVG 1.1//EN" "http://www.w3.org/Graphics/SVG/1.1/DTD/svg11.dtd"><svg t="1665394174960" class="icon" viewBox="0 0 1024 1024" version="1.1" xmlns="http://www.w3.org/2000/svg" p-id="2229" xmlns:xlink="http://www.w3.org/1999/xlink" width="200" height="200"><path d="M921.6 223.6416a51.2 51.2 0 0 0-51.2-51.2h-173.2096V128a25.6 25.6 0 0 0-51.2 0v44.4416H361.216V128a25.6 25.6 0 0 0-51.2 0v44.4416H153.6a51.2 51.2 0 0 0-51.2 51.2v128.5632h819.2V223.6416zM102.4 403.4048V870.4a51.2 51.2 0 0 0 51.2 51.2h716.8a51.2 51.2 0 0 0 51.2-51.2V403.4048H102.4z m657.6128 329.3696c-3.5328 3.9936-8.3456 6.0928-15.7184 12.3904l-64.512 46.08a67.584 67.584 0 0 1-65.3824 1.28l-321.024-169.3184c-24.6784-11.7248-46.1824-37.12-32.3072-67.7376l0.256-0.4096c16.4352-31.0272 52.3776-30.4128 75.5712-19.8656l112.7424 58.8288 166.7584-74.4448c15.5136-7.168 19.4048-10.8032 33.9968-1.536l20.0704 16.2304c10.5472 9.1648 11.6736 19.6096 4.5056 27.5456-2.816 3.1232-4.3008 4.096-8.448 7.8336l-104.2432 85.248 90.8288 50.3296 67.8912-10.9568c19.5072-4.9664 21.9136-1.1264 30.9248 7.1168l10.0864 9.216c10.5472 10.1888 2.6624 16.896-1.9968 22.1696z" p-id="2230"></path></svg>