<?xml version="1.0" standalone="no"?><!DOCTYPE svg PUBLIC "-//W3C//DTD SVG 1.1//EN" "http://www.w3.org/Graphics/SVG/1.1/DTD/svg11.dtd"><svg t="1665394140524" class="icon" viewBox="0 0 1024 1024" version="1.1" xmlns="http://www.w3.org/2000/svg" p-id="1846" width="200" height="200" xmlns:xlink="http://www.w3.org/1999/xlink"><path d="M221.401212 393.050505m24.100202 0l539.823839 0q24.100202 0 24.100202 24.100202l0 0.103434q0 24.100202-24.100202 24.100202l-539.823839 0q-24.100202 0-24.100202-24.100202l0-0.103434q0-24.100202 24.100202-24.100202Z" p-id="1847"></path><path d="M221.401212 551.615354m24.100202 0l539.823839 0q24.100202 0 24.100202 24.100202l0 0.103434q0 24.100202-24.100202 24.100202l-539.823839 0q-24.100202 0-24.100202-24.100202l0-0.103434q0-24.100202 24.100202-24.100202Z" p-id="1848"></path><path d="M221.401212 710.283636m24.100202 0l539.823839 0q24.100202 0 24.100202 24.100202l0 0.103435q0 24.100202-24.100202 24.100202l-539.823839 0q-24.100202 0-24.100202-24.100202l0-0.103435q0-24.100202 24.100202-24.100202Z" p-id="1849"></path><path d="M774.568081 1024H249.431919A144.808081 144.808081 0 0 1 104.623838 879.191919V144.808081A144.808081 144.808081 0 0 1 249.431919 0h525.136162a144.808081 144.808081 0 0 1 144.808081 144.808081v734.383838a144.808081 144.808081 0 0 1-144.808081 144.808081zM249.431919 41.373737A103.434343 103.434343 0 0 0 145.997576 144.808081v734.383838a103.434343 103.434343 0 0 0 103.434343 103.434344h525.136162a103.434343 103.434343 0 0 0 103.434343-103.434344V144.808081a103.434343 103.434343 0 0 0-103.434343-103.434344z" p-id="1850"></path></svg>