<svg t="1677812191465" class="icon" viewBox="0 0 1024 1024" version="1.1" xmlns="http://www.w3.org/2000/svg" p-id="3930" width="64" height="64"><path d="M960.5 755.8V203.5c0-6.6-5.4-12-12-12H76.3c-6.6 0-12 5.4-12 12v552.2c0 6.6 5.4 12 12 12h333.5c3.3 0 6 2.7 6 6v83.9c0 3.3-2.7 6-6 6H264.1c-3.3 0-6 2.7-6 6v52c0 3.3 2.7 6 6 6h496.4c3.3 0 6-2.7 6-6v-52c0-3.3-2.7-6-6-6H614.8c-3.3 0-6-2.7-6-6v-83.9c0-3.3 2.7-6 6-6h333.7c6.6 0.1 12-5.3 12-11.9zM538.8 863.6h-53c-3.3 0-6-2.7-6-6v-83.9c0-3.3 2.7-6 6-6h53c3.3 0 6 2.7 6 6v83.9c0 3.4-2.7 6-6 6zM128.3 697.8V261.5c0-3.3 2.7-6 6-6h756.1c3.3 0 6 2.7 6 6v436.2c0 3.3-2.7 6-6 6H134.3c-3.3 0.1-6-2.6-6-5.9z" p-id="3931"></path><path d="M198.2 511.7h180c3.3 0 6-2.7 6-6V325.5c0-3.3-2.7-6-6-6h-180c-3.3 0-6 2.7-6 6v180.3c0 3.3 2.6 5.9 6 5.9z m64-128.2h52c3.3 0 6 2.7 6 6v52.3c0 3.3-2.7 6-6 6h-52c-3.3 0-6-2.7-6-6v-52.3c0-3.3 2.6-6 6-6zM826.2 319.5h-372c-3.3 0-6 2.7-6 6v52c0 3.3 2.7 6 6 6h372c3.3 0 6-2.7 6-6v-52c0-3.3-2.6-6-6-6zM826.2 447.3h-372c-3.3 0-6 2.7-6 6v52c0 3.3 2.7 6 6 6h372c3.3 0 6-2.7 6-6v-52c0-3.3-2.7-6-6-6zM198.2 639.7h52c3.3 0 6-2.7 6-6v-52c0-3.3-2.7-6-6-6h-52c-3.3 0-6 2.7-6 6v52c0 3.3 2.7 6 6 6zM326.2 639.7h52c3.3 0 6-2.7 6-6v-52c0-3.3-2.7-6-6-6h-52c-3.3 0-6 2.7-6 6v52c0 3.3 2.7 6 6 6zM518.2 639.7h52c3.3 0 6-2.7 6-6v-52c0-3.3-2.7-6-6-6h-52c-3.3 0-6 2.7-6 6v52c0 3.3 2.7 6 6 6zM646.3 639.7h52c3.3 0 6-2.7 6-6v-52c0-3.3-2.7-6-6-6h-52c-3.3 0-6 2.7-6 6v52c0 3.3 2.6 6 6 6zM774.3 639.7h52c3.3 0 6-2.7 6-6v-52c0-3.3-2.7-6-6-6h-52c-3.3 0-6 2.7-6 6v52c0 3.3 2.7 6 6 6z" p-id="3932"></path></svg>