<?xml version="1.0" standalone="no"?><!DOCTYPE svg PUBLIC "-//W3C//DTD SVG 1.1//EN" "http://www.w3.org/Graphics/SVG/1.1/DTD/svg11.dtd"><svg t="1664164334513" class="icon" viewBox="0 0 1024 1024" version="1.1" xmlns="http://www.w3.org/2000/svg" p-id="14053" xmlns:xlink="http://www.w3.org/1999/xlink" width="200" height="200"><path d="M801.274 157.172c0-21.7-17.937-39.291-40.065-39.291L661.052 117.881l0 39.291c0 21.702-17.937 39.294-40.065 39.294L280.446 196.466c-22.125 0-40.062-17.591-40.062-39.294l0-39.291L120.192 117.881c-22.125 0-40.065 17.591-40.065 39.291l0 746.571c0 21.702 17.939 39.296 40.065 39.296L440.7 943.039l80.129 78.585L80.128 1021.624C35.874 1021.623 0 986.441 0 943.039L0 117.881c0-43.402 35.874-78.59 80.128-78.59l160.256 0c0-21.7 17.937-39.291 40.062-39.291l340.541 0c22.128 0 40.065 17.591 40.065 39.291l140.223 0c44.253 0 80.127 35.188 80.127 78.59l0 360.582-80.127 81.611L801.275 157.172zM620.987 432.227 260.415 432.227c-11.065 0-20.031-8.798-20.031-19.649l0-19.644c0-10.854 8.966-19.647 20.031-19.647l360.572 0c11.063 0 20.034 8.793 20.034 19.647l0 19.644C641.021 423.429 632.05 432.227 620.987 432.227zM641.021 628.692c0 10.849-8.971 19.644-20.034 19.644L260.415 648.336c-11.065 0-20.031-8.796-20.031-19.644l0-19.649c0-10.849 8.966-19.644 20.031-19.644l360.572 0c11.063 0 20.034 8.796 20.034 19.644L641.021 628.692zM466.413 750.879 614.66 877.587l406.964-406.069-401.418 550.105L413.515 802.704 466.413 750.879z" p-id="14054"></path></svg>