<?xml version="1.0" standalone="no"?><!DOCTYPE svg PUBLIC "-//W3C//DTD SVG 1.1//EN" "http://www.w3.org/Graphics/SVG/1.1/DTD/svg11.dtd"><svg t="1678090530693" class="icon" viewBox="0 0 1024 1024" version="1.1" xmlns="http://www.w3.org/2000/svg" p-id="996" xmlns:xlink="http://www.w3.org/1999/xlink" width="200" height="200"><path d="M864 662.4c7.125333 17.130667 10.666667 34.986667 10.666667 53.546667h-139.946667V576q27.84 0 53.546667 10.666667 25.728 10.645333 45.418666 30.314666 19.669333 19.690667 30.336 45.418667z m-31.573333 149.973333q23.573333-35.306667 23.573333-77.76h-139.946667v-139.946666a137.002667 137.002667 0 0 0-77.738666 23.573333q-35.306667 23.594667-51.562667 62.805333-16.234667 39.232-7.957333 80.853334 8.277333 41.642667 38.293333 71.68 30.037333 30.016 71.68 38.293333a137.002667 137.002667 0 0 0 80.853333-7.957333q39.210667-16.256 62.805334-51.562667z"  p-id="997"></path><path d="M810.645333 350.165333v180.672a21.333333 21.333333 0 1 0 42.666667 0v-180.672q0-17.664-12.501333-30.165333L682.666667 161.834667Q670.165333 149.333333 652.501333 149.333333H234.666667q-26.517333 0-45.248 18.752Q170.666667 186.816 170.666667 213.333333v594.986667q0 26.496 18.752 45.248 18.730667 18.752 45.248 18.752h298.666666a21.333333 21.333333 0 1 0 0-42.666667H234.666667q-8.832 0-15.082667-6.250666T213.333333 808.32V213.333333q0-8.832 6.250667-15.082666T234.666667 192h417.834666l158.144 158.165333z"  p-id="998"></path><path d="M298.666667 640v106.666667a21.333333 21.333333 0 0 0 42.666666 0v-106.666667a21.333333 21.333333 0 0 0-42.666666 0zM426.666667 746.666667a21.333333 21.333333 0 1 0 42.666666 0v-170.666667a21.333333 21.333333 0 0 0-42.666666 0v170.666667z"  p-id="999"></path><path d="M682.666667 362.666667a42.666667 42.666667 0 1 0-35.242667-18.624l-84.138667 126.165333a42.666667 42.666667 0 0 0-25.28 2.517333l-72.064-72.064a42.666667 42.666667 0 1 0-79.893333-3.626666l-67.242667 56.021333a42.666667 42.666667 0 1 0 20.48 24.576l67.242667-56.021333a42.666667 42.666667 0 0 0 36.8 1.664l72.064 72.064a42.666667 42.666667 0 1 0 74.538667-7.381334l84.117333-126.165333A42.666667 42.666667 0 0 0 682.666667 362.666667z"  p-id="1000"></path></svg>