<svg t="1677830917118" class="icon" viewBox="0 0 1024 1024" version="1.1" xmlns="http://www.w3.org/2000/svg" p-id="7098" width="64" height="64"><path d="M514 202.8V510H202.8v2c0 170.8 138.4 309.3 309.2 309.3 170.8 0 309.3-138.4 309.3-309.3C821.2 342 684 204 514 202.8z" p-id="7099"></path><path d="M512 64C264.6 64 64 264.6 64 512s200.6 448 448 448 448-200.6 448-448S759.4 64 512 64z m282.8 730.8c-36.8 36.8-79.5 65.6-127.2 85.7C618.4 901.4 566 912 512 912s-106.4-10.6-155.7-31.4c-47.6-20.1-90.4-49-127.2-85.7-36.8-36.8-65.6-79.5-85.7-127.2C122.6 618.4 112 566 112 512s10.6-106.4 31.4-155.7c20.1-47.6 49-90.4 85.7-127.2 36.8-36.8 79.5-65.6 127.2-85.7C405.6 122.6 458 112 512 112c54 0 106.4 10.6 155.7 31.4 47.6 20.1 90.4 49 127.2 85.7 36.8 36.8 65.6 79.5 85.7 127.2C901.4 405.6 912 458 912 512s-10.6 106.4-31.4 155.7c-20.2 47.6-49 90.4-85.8 127.1z" p-id="7100"></path></svg>