<?xml version="1.0" standalone="no"?><!DOCTYPE svg PUBLIC "-//W3C//DTD SVG 1.1//EN" "http://www.w3.org/Graphics/SVG/1.1/DTD/svg11.dtd"><svg t="1664173126615" class="icon" viewBox="0 0 1024 1024" version="1.1" xmlns="http://www.w3.org/2000/svg" p-id="18203" xmlns:xlink="http://www.w3.org/1999/xlink" width="200" height="200"><path d="M870.4 1017.6c-32 0-70.4-12.8-89.6-38.4l-192-192h-6.4c-25.6 6.4-51.2 12.8-76.8 12.8-19.2 0-38.4 0-57.6-6.4-51.2-12.8-96-38.4-134.4-76.8-64-64-96-160-76.8-256 6.4-25.6 25.6-44.8 44.8-51.2h19.2c19.2 0 32 6.4 44.8 19.2l64 64c6.4 12.8 19.2 19.2 32 19.2s25.6-6.4 32-12.8c19.2-19.2 19.2-51.2 0-70.4l-70.4-64c-12.8-19.2-19.2-44.8-12.8-70.4 6.4-25.6 25.6-38.4 51.2-44.8 19.2-6.4 38.4-6.4 57.6-6.4 76.8 0 147.2 32 198.4 83.2 38.4 38.4 64 83.2 76.8 134.4 12.8 44.8 6.4 96-6.4 134.4v6.4l192 192c25.6 25.6 38.4 57.6 38.4 89.6 0 32-12.8 70.4-38.4 89.6-25.6 32-57.6 44.8-89.6 44.8zM588.8 704c19.2 0 38.4 6.4 44.8 19.2l198.4 198.4c6.4 6.4 19.2 12.8 32 12.8s25.6-6.4 32-12.8c6.4-6.4 12.8-19.2 12.8-32s-6.4-25.6-12.8-32l-192-198.4c-19.2-19.2-25.6-44.8-19.2-70.4 12.8-32 12.8-70.4 6.4-108.8-6.4-38.4-25.6-70.4-51.2-96-38.4-38.4-83.2-57.6-128-57.6h-25.6l51.2 51.2c25.6 25.6 38.4 57.6 38.4 89.6 0 32-12.8 70.4-38.4 89.6-25.6 25.6-64 38.4-96 38.4s-70.4-12.8-89.6-38.4l-51.2-51.2v25.6c0 51.2 25.6 96 57.6 128 25.6 25.6 64 44.8 96 57.6 12.8 0 25.6 6.4 44.8 6.4 19.2 0 44.8-6.4 64-12.8 6.4-6.4 12.8-6.4 25.6-6.4z" p-id="18204"></path><path d="M198.4 1017.6c-51.2 0-160-32-160-140.8V192c0-128 83.2-192 160-192h556.8c96 0 160 64 160 166.4v230.4c0 19.2-12.8 44.8-38.4 44.8-32-6.4-44.8-19.2-44.8-38.4V185.6c0-70.4-64-96-89.6-96H198.4c-32 0-83.2 38.4-83.2 121.6v640c0 96 64 96 89.6 96h192c25.6-6.4 38.4 19.2 38.4 38.4s-12.8 38.4-44.8 38.4h-192z" p-id="18205"></path></svg>