<?xml version="1.0" standalone="no"?><!DOCTYPE svg PUBLIC "-//W3C//DTD SVG 1.1//EN" "http://www.w3.org/Graphics/SVG/1.1/DTD/svg11.dtd"><svg t="1664161676333" class="icon" viewBox="0 0 1024 1024" version="1.1" xmlns="http://www.w3.org/2000/svg" p-id="3003" xmlns:xlink="http://www.w3.org/1999/xlink" width="200" height="200"><path d="M320 0m0 48l0 224q0 48-48 48l0 0q-48 0-48-48l0-224q0-48 48-48l0 0q48 0 48 48Z" p-id="3004"></path><path d="M800 0m0 48l0 224q0 48-48 48l0 0q-48 0-48-48l0-224q0-48 48-48l0 0q48 0 48 48Z" p-id="3005"></path><path d="M896 1024H128a128 128 0 0 1-128-128V256a128 128 0 0 1 128-128h768a128 128 0 0 1 128 128v640a128 128 0 0 1-128 128zM157.44 220.8a64 64 0 0 0-64 64v582.4a64 64 0 0 0 64 64h709.12a64 64 0 0 0 64-64v-582.4a64 64 0 0 0-64-64z" p-id="3006"></path><path d="M305.92 815.36a458.24 458.24 0 0 1-84.48-7.04v-64l39.68 6.4a272.64 272.64 0 0 0 40.32 0 170.88 170.88 0 0 0 32 0 71.68 71.68 0 0 0 24.96-7.68 42.24 42.24 0 0 0 17.28-16 45.44 45.44 0 0 0 6.4-26.24 39.68 39.68 0 0 0-23.68-40.32 175.36 175.36 0 0 0-64-10.88h-32v-62.08h28.16a151.04 151.04 0 0 0 64-10.24 39.04 39.04 0 0 0 23.04-39.04 35.2 35.2 0 0 0-17.92-34.56 117.76 117.76 0 0 0-49.92-8.96 250.24 250.24 0 0 0-36.48 0 334.08 334.08 0 0 0-35.84 8.32v-64a297.6 297.6 0 0 1 35.84-7.68 384 384 0 0 1 46.72 0 256 256 0 0 1 56.32 5.12 108.16 108.16 0 0 1 42.88 17.28 76.8 76.8 0 0 1 28.8 31.36 120.96 120.96 0 0 1 8.96 48 83.84 83.84 0 0 1-14.08 49.92 89.6 89.6 0 0 1-45.44 30.72v3.2a81.28 81.28 0 0 1 51.84 30.08 94.72 94.72 0 0 1 17.28 57.6 93.44 93.44 0 0 1-39.04 83.84 213.12 213.12 0 0 1-121.6 26.88zM667.52 815.36a195.84 195.84 0 0 1-56.32-8.32 99.2 99.2 0 0 1-42.88-30.08 160.64 160.64 0 0 1-27.52-59.52 388.48 388.48 0 0 1-9.6-94.72 388.48 388.48 0 0 1 9.6-94.72 157.44 157.44 0 0 1 27.52-58.88 92.8 92.8 0 0 1 42.88-29.44 176 176 0 0 1 56.32-8.32 169.6 169.6 0 0 1 55.68 8.32 92.8 92.8 0 0 1 42.88 29.44 157.44 157.44 0 0 1 26.88 58.88 388.48 388.48 0 0 1 9.6 94.72 388.48 388.48 0 0 1-9.6 94.72 160.64 160.64 0 0 1-26.88 59.52 99.2 99.2 0 0 1-42.88 30.08 188.16 188.16 0 0 1-55.68 8.32z m0-67.2a55.04 55.04 0 0 0 26.24-5.76 39.04 39.04 0 0 0 18.56-19.2 136.96 136.96 0 0 0 10.24-37.76 535.68 535.68 0 0 0 3.2-64 527.36 527.36 0 0 0-3.2-64 149.12 149.12 0 0 0-10.24-38.4 43.52 43.52 0 0 0-18.56-19.84 64 64 0 0 0-26.24-5.12 69.12 69.12 0 0 0-26.88 5.12 42.24 42.24 0 0 0-17.92 19.84 128 128 0 0 0-10.24 38.4 527.36 527.36 0 0 0-3.2 64 535.68 535.68 0 0 0 3.2 64 117.76 117.76 0 0 0 10.24 37.76 37.76 37.76 0 0 0 17.92 19.2 59.52 59.52 0 0 0 26.88 5.76z" p-id="3007"></path></svg>