<svg t="1677812455488" class="icon" viewBox="0 0 1024 1024" version="1.1" xmlns="http://www.w3.org/2000/svg" p-id="5265" width="64" height="64"><path d="M464.013785 381.432123h119.634707A18.558031 18.558031 0 0 0 601.7024 362.338462v-0.4096a18.904615 18.904615 0 0 0-18.384738-19.345724h-119.335385A18.904615 18.904615 0 0 0 445.833846 362.338462a18.621046 18.621046 0 0 0 18.179939 19.093661z m0 132.143262h62.920861a18.558031 18.558031 0 0 0 18.038154-19.030647v-0.4096a18.904615 18.904615 0 0 0-18.384738-19.345723h-62.605785a18.904615 18.904615 0 0 0-18.148431 19.771077 18.621046 18.621046 0 0 0 18.179939 19.014893zM726.724923 698.226215v149.157416H155.411692V243.333908h53.153477v17.707323a15.375754 15.375754 0 0 0 18.542277 14.7456H655.202462a15.312738 15.312738 0 0 0 18.384738-14.761354v-17.691569h53.137723v116.846277H787.692308v-149.472493a31.302892 31.302892 0 0 0-30.215877-32.122092h-83.904985V160.689231a19.077908 19.077908 0 0 0-18.368984-19.534769h-97.673847a127.716431 127.716431 0 0 0-31.507692-59.26597 115.381169 115.381169 0 0 0-84.440615-37.651692h-0.551385A115.239385 115.239385 0 0 0 356.336246 81.92a130.268554 130.268554 0 0 0-31.712492 59.234462h-97.516308a19.109415 19.109415 0 0 0-18.558031 19.534769v17.927877h-83.495384a31.381662 31.381662 0 0 0-30.467939 32.122092v662.906092a31.507692 31.507692 0 0 0 30.467939 32.3584H757.444923A31.365908 31.365908 0 0 0 787.692308 873.645292V698.226215h-60.967385z m-344.4736-589.193846a80.124062 80.124062 0 0 1 58.7776-25.962338h0.488369a80.344615 80.344615 0 0 1 58.525539 25.962338 91.687385 91.687385 0 0 1 19.613538 32.1536h-156.782277a88.788677 88.788677 0 0 1 19.377231-32.1536z m-136.932431 71.160123h392.002954v61.566031H245.318892v-61.566031z m60.037908 242.609231l-31.9488 57.233723a9.058462 9.058462 0 0 0 0 8.774892 8.459815 8.459815 0 0 0 7.341292 4.37957h63.929108a8.822154 8.822154 0 0 0 7.183754-13.422277l-31.822769-56.997416a8.333785 8.333785 0 0 0-14.698339 0.063016z m-9.940677 52.854154l17.329231-30.956308 17.329231 30.956308h-34.658462z m118.705231 38.187323l-91.781908-164.375631a11.027692 11.027692 0 0 0-19.314215 0l-92.065477 164.942769a11.894154 11.894154 0 0 0 0 11.531816 11.122215 11.122215 0 0 0 9.594092 5.750154h184.241231a11.374277 11.374277 0 0 0 11.137969-11.579077 11.941415 11.941415 0 0 0-1.811692-6.254277z m-28.672-5.230277h-145.534031l72.751262-130.331569z m78.580184 137.058462h62.920862a18.558031 18.558031 0 0 0 18.038154-19.030647v-0.4096a18.904615 18.904615 0 0 0-18.384739-19.345723h-62.621538a18.904615 18.904615 0 0 0-18.148431 19.818339 18.621046 18.621046 0 0 0 18.179939 19.030646z m0 132.143261H654.414769a18.558031 18.558031 0 0 0 18.053908-19.030646v-0.4096a18.904615 18.904615 0 0 0-18.384739-19.345723H463.982277a18.904615 18.904615 0 0 0-18.148431 19.818338 18.621046 18.621046 0 0 0 18.179939 19.030647z m-158.672738-89.970215L273.392246 745.156923a9.042708 9.042708 0 0 0 0 8.774892 8.459815 8.459815 0 0 0 7.341292 4.37957h63.929108a8.822154 8.822154 0 0 0 7.183754-13.406523l-31.822769-56.997416a8.333785 8.333785 0 0 0-14.666831-0.063015z m-9.940677 52.869907l17.329231-30.956307 17.329231 30.956307h-34.658462z m118.705231 38.187324l-91.781908-164.422893a11.027692 11.027692 0 0 0-19.314215 0l-92.065477 164.942769a11.925662 11.925662 0 0 0 0 11.54757 11.137969 11.137969 0 0 0 9.657108 5.750154h184.178215a11.374277 11.374277 0 0 0 11.137969-11.579077 11.941415 11.941415 0 0 0-1.811692-6.254277z m-28.672-5.246031h-145.534031l72.751262-130.331569z" p-id="5266"></path><path d="M752.246154 352.476554a175.198523 175.198523 0 0 0-122.627939 300.410092v-24.197908a70.671754 70.671754 0 0 0 22.181416-60.983138v-155.222646H848.029538V607.625846q1.087015 45.434092-45.449846 44.347077H770.363077v-29.932308h15.517538q13.296246 1.118523 12.193477-14.414769v-27.726769H700.573538c-3.607631 34.469415-26.2144 59.864615-67.489476 76.138338a175.198523 175.198523 0 1 0 119.162092-303.560861z m45.890954 93.262769h-96.445046v34.374892h96.4608v-34.374892z m-96.4608 102.006154h96.4608v-35.477662h-96.445046v35.477662z" p-id="5267"></path></svg>