<?xml version="1.0" standalone="no"?><!DOCTYPE svg PUBLIC "-//W3C//DTD SVG 1.1//EN" "http://www.w3.org/Graphics/SVG/1.1/DTD/svg11.dtd"><svg t="1664176498691" class="icon" viewBox="0 0 1024 1024" version="1.1" xmlns="http://www.w3.org/2000/svg" p-id="24242" xmlns:xlink="http://www.w3.org/1999/xlink" width="200" height="200"><path d="M986.624 391.466667c-19.754667 0-35.84 16.768-35.84 37.376v460.373333c0 32.512-25.173333 58.88-56.149333 58.88H127.701333c-30.976 0-56.149333-26.496-56.149333-58.88V133.546667c0-32.554667 25.173333-58.88 56.149333-58.88h510.72c19.712 0 35.84-16.810667 35.84-37.376S658.090667 0 638.378667 0H127.701333C57.344 0 0 59.904 0 133.461333v755.626667c0 73.557333 57.216 133.418667 127.701333 133.418667h766.805334c70.485333 0 127.829333-59.861333 127.957333-133.418667V428.8c0-20.608-16.085333-37.376-35.84-37.376z m-11.562667-250.24l8.746667-8.874667c3.285333-3.328 7.082667-7.168 11.349333-11.605333 3.882667-4.437333 6.741333-8.96 8.533334-13.781334a40.106667 40.106667 0 0 0 2.56-14.293333c0-4.821333-0.426667-9.386667-1.28-13.824a55.168 55.168 0 0 0-3.413334-11.562667 128.853333 128.853333 0 0 0-20.949333-31.786666c-8.96-10.112-17.152-17.152-24.618667-21.205334a76.202667 76.202667 0 0 0-12.373333-4.949333 49.749333 49.749333 0 0 0-30.378667-0.256 44.544 44.544 0 0 0-15.402666 8.533333 307.712 307.712 0 0 0-14.506667 13.568l-15.189333 14.634667 98.986666 103.168c2.474667-2.218667 5.12-4.821333 7.936-7.765333z" p-id="24243"></path><path d="M604.117333 320.64c-7.68 8.362667-12.672 13.525333-14.805333 15.786667a101.12 101.12 0 0 0-11.349333 13.781333 95.317333 95.317333 0 0 0-7.082667 14.08c-1.749333 3.285333-4.010667 9.344-6.826667 18.218667a1451.434667 1451.434667 0 0 0-17.28 59.306666 179.754667 179.754667 0 0 0-5.12 22.272c-1.408 9.6-0.554667 16.384 2.645334 20.437334 3.157333 4.053333 9.429333 5.546667 19.029333 4.437333a209.066667 209.066667 0 0 0 20.906667-4.949333c9.386667-2.56 19.285333-5.632 29.696-9.088 10.410667-3.456 20.48-7.04 29.909333-10.752 9.472-3.669333 16.64-6.741333 21.632-9.386667a65.706667 65.706667 0 0 0 14.336-8.832c4.608-3.712 8.618667-7.168 12.16-10.496 1.408-0.981333 5.802667-5.418667 13.226667-13.184 7.338667-7.637333 16.810667-17.493333 28.032-29.44 11.221333-11.946667 24.021333-25.130667 38.101333-39.424l42.325333-44.586667 113.749334-118.570666-98.986667-103.637334L633.216 290.133333c-11.605333 12.074667-21.333333 22.272-29.098667 30.549334z m187.434667 246.698667H224.768c-19.712 0-35.84 16.768-35.84 37.333333s16.128 37.333333 35.84 37.333333h566.784c19.712 0 35.84-16.64 35.84-37.333333 0-20.565333-16.128-37.333333-35.84-37.333333z m0 183.338666H224.768c-19.712 0-35.84 16.768-35.84 37.333334 0 20.608 16.128 37.333333 35.84 37.333333h566.784c19.712 0 35.84-16.725333 35.84-37.333333 0-20.565333-16.128-37.333333-35.84-37.333334z" p-id="24244"></path></svg>