<?xml version="1.0" standalone="no"?><!DOCTYPE svg PUBLIC "-//W3C//DTD SVG 1.1//EN" "http://www.w3.org/Graphics/SVG/1.1/DTD/svg11.dtd"><svg t="1664176383229" class="icon" viewBox="0 0 1109 1024" version="1.1" xmlns="http://www.w3.org/2000/svg" p-id="24059" xmlns:xlink="http://www.w3.org/1999/xlink" width="216.6015625" height="200"><path d="M0 0v1024h1102.762667V0H0z m748.288 256H1024v177.237333h-275.712V256z m-393.813333 689.237333H78.762667v-181.162666h275.712v181.162666z m0-259.925333H78.762667V512h275.712v173.312z m0-252.074667H78.762667V256h275.712v177.237333z m315.050666 512h-236.288v-181.162666h236.288v181.162666z m0-259.925333h-236.288V512h236.288v173.312z m0-252.074667h-236.288V256h236.288v177.237333z m354.474667 512h-275.712v-181.162666H1024v181.162666z m0-259.925333h-275.712V512H1024v173.312z" p-id="24060"></path></svg>