<svg t="1677812412674" class="icon" viewBox="0 0 1024 1024" version="1.1" xmlns="http://www.w3.org/2000/svg" p-id="5116" width="64" height="64"><path d="M836.266667 0H170.666667C114.210133 0 68.266667 45.943467 68.266667 102.4v819.2c0 56.456533 45.943467 102.4 102.4 102.4h665.6c56.456533 0 119.466667-45.943467 119.466666-102.4V102.4c0-56.456533-63.010133-102.4-119.466666-102.4zM324.266667 68.266667h375.466666v119.466666H324.266667V68.266667z m563.2 853.333333a34.133333 34.133333 0 0 1-34.133334 34.133333H170.666667c-18.807467 0-34.133333-15.291733-34.133334-34.133333V102.4c0-18.807467 15.325867-34.133333 34.133334-34.133333h85.333333v119.466666c0 37.649067 30.6176 68.266667 68.266667 68.266667h375.466666c37.649067 0 68.266667-30.6176 68.266667-68.266667V68.266667h85.333333c18.8416 0 34.133333 15.325867 34.133334 34.133333v819.2zM460.032 617.335467l-128.5632-128.3072a34.269867 34.269867 0 0 0-48.384 0 34.065067 34.065067 0 0 0 0 48.264533l152.763733 152.439467c13.3632 13.329067 35.0208 13.329067 48.384 0l290.816-290.133334a34.065067 34.065067 0 0 0 0-48.264533 34.269867 34.269867 0 0 0-48.384 0L460.032 617.335467z" p-id="5117"></path></svg>