<?xml version="1.0" standalone="no"?><!DOCTYPE svg PUBLIC "-//W3C//DTD SVG 1.1//EN" "http://www.w3.org/Graphics/SVG/1.1/DTD/svg11.dtd"><svg t="1665394238454" class="icon" viewBox="0 0 1024 1024" version="1.1" xmlns="http://www.w3.org/2000/svg" p-id="2968" xmlns:xlink="http://www.w3.org/1999/xlink" width="200" height="200"><path d="M131.413 204.8c-8.533 0-15.36 3.413-20.48 8.533s-8.533 13.653-8.533 20.48v351.573c0 8.533 3.413 15.36 8.533 20.48s13.653 8.533 20.48 8.533h58.027c8.533 0 15.36-3.413 20.48-8.533s8.533-13.653 8.533-20.48V204.799h-87.04zM892.587 0H307.2c-8.533 0-15.36 3.413-20.48 8.533s-8.533 13.653-8.533 20.48v556.373c0 8.533 3.413 15.36 8.533 20.48s13.653 8.533 20.48 8.533h30.72c15.36 1.707 27.307 13.653 27.307 29.013v58.027c0 8.533 3.413 15.36 8.533 20.48s13.653 8.533 20.48 8.533h233.813c8.533 0 15.36-3.413 20.48-8.533s8.533-13.653 8.533-20.48v-58.027c0-15.36 11.947-29.013 27.307-29.013H890.88c8.533 0 15.36-3.413 20.48-8.533s8.533-13.653 8.533-20.48V29.013c0-8.533-3.413-15.36-8.533-20.48C907.947 3.413 899.413 0 892.587 0zM745.813 409.6h-291.84c-8.533 0-15.36-3.413-20.48-8.533s-8.533-13.653-8.533-20.48c0-15.36 13.653-29.013 29.013-29.013h291.84c8.533 0 15.36 3.413 20.48 8.533s8.533 13.653 8.533 20.48-3.413 15.36-8.533 20.48c-5.12 5.12-11.947 8.533-20.48 8.533z m0-146.773h-291.84c-15.36 0-29.013-13.653-29.013-29.013 0-8.533 3.413-15.36 8.533-20.48s13.653-8.533 20.48-8.533h291.84c8.533 0 15.36 3.413 20.48 8.533s8.533 13.653 8.533 20.48c0 8.533-3.413 15.36-8.533 20.48s-11.947 8.533-20.48 8.533z" p-id="2969"></path><path d="M952.32 672.427H745.813c-8.533 0-15.36 3.413-20.48 8.533s-8.533 13.653-8.533 20.48v25.6c0 34.133-27.307 61.44-61.44 61.44H368.64c-34.133 0-61.44-27.307-61.44-61.44v-27.307c0-8.533-3.413-15.36-8.533-20.48s-13.653-8.533-20.48-8.533h-204.8c-8.533 0-15.36 3.413-20.48 8.533s-8.533 13.653-8.533 20.48v291.84c0 15.36 11.947 29.013 27.307 29.013h880.64c15.36-1.707 27.307-13.653 27.307-29.013V701.44c0-15.36-11.947-27.307-27.307-29.013z" p-id="2970"></path></svg>