<?xml version="1.0" standalone="no"?><!DOCTYPE svg PUBLIC "-//W3C//DTD SVG 1.1//EN" "http://www.w3.org/Graphics/SVG/1.1/DTD/svg11.dtd"><svg t="1665394282366" class="icon" viewBox="0 0 1024 1024" version="1.1" xmlns="http://www.w3.org/2000/svg" p-id="4152" xmlns:xlink="http://www.w3.org/1999/xlink" width="200" height="200"><path d="M946.56 154.688H93.824c-37.12 0-67.2 30.08-67.2 67.2v562.304c0 37.12 30.08 67.2 67.2 67.2h852.608c37.12 0 67.2-30.08 67.2-67.2V221.888c0-37.12-30.08-67.2-67.2-67.2z m0 37.312c16.448 0 29.824 13.376 29.824 29.888v562.304a29.888 29.888 0 0 1-29.888 29.888H93.888A29.888 29.888 0 0 1 64 784.192V221.888C64 205.376 77.376 192 93.888 192h852.608z" p-id="4153"></path><path d="M727.552 258.944a16 16 0 0 1 15.552 12.352l0.448 3.648v82.944a16 16 0 0 1-31.552 3.648l-0.448-3.648V290.944H644.608a16 16 0 0 1-15.552-12.352l-0.448-3.648a16 16 0 0 1 12.352-15.552l3.648-0.448h82.944z" p-id="4154"></path><path d="M229.888 887.68m32 0l558.08 0q32 0 32 32l0 0q0 32-32 32l-558.08 0q-32 0-32-32l0 0q0-32 32-32Z" p-id="4155"></path><path d="M229.888 565.248m14.912 0l53.12 0q14.912 0 14.912 14.912l0 219.008q0 14.912-14.912 14.912l-53.12 0q-14.912 0-14.912-14.912l0-219.008q0-14.912 14.912-14.912Z" p-id="4156"></path><path d="M716.224 263.68a16 16 0 0 1 25.216 19.2l-2.56 3.392-166.144 165.888a16 16 0 0 1-18.368 3.008l-3.392-2.24L393.6 316.992 239.232 428.032a16 16 0 0 1-19.392-0.512l-2.944-3.136a16 16 0 0 1 0.512-19.328l3.136-2.944 164.608-118.4a16 16 0 0 1 16.192-1.536l3.584 2.368L560.64 419.008l155.584-155.392z" p-id="4157"></path><path d="M543.232 565.248m14.912 0l53.12 0q14.912 0 14.912 14.912l0 219.008q0 14.912-14.912 14.912l-53.12 0q-14.912 0-14.912-14.912l0-219.008q0-14.912 14.912-14.912Z" p-id="4158"></path><path d="M386.56 440.832m14.912 0l53.12 0q14.912 0 14.912 14.912l0 343.424q0 14.912-14.912 14.912l-53.12 0q-14.912 0-14.912-14.912l0-343.424q0-14.912 14.912-14.912Z" p-id="4159"></path><path d="M699.904 440.832m14.912 0l53.12 0q14.912 0 14.912 14.912l0 343.424q0 14.912-14.912 14.912l-53.12 0q-14.912 0-14.912-14.912l0-343.424q0-14.912 14.912-14.912Z" p-id="4160"></path></svg>